<?xml version="1.0" encoding="UTF-8" standalone="no"?>
<!-- Created with Inkscape (http://www.inkscape.org/) -->

<svg
   width="427.00397mm"
   height="229.26494mm"
   viewBox="0 0 427.00397 229.26494"
   version="1.1"
   id="svg1"
   xml:space="preserve"
   inkscape:export-filename="logo.svg"
   inkscape:export-xdpi="256.56567"
   inkscape:export-ydpi="256.56567"
   inkscape:version="1.3 (0e150ed, 2023-07-21)"
   sodipodi:docname="logov2.svg"
   xmlns:inkscape="http://www.inkscape.org/namespaces/inkscape"
   xmlns:sodipodi="http://sodipodi.sourceforge.net/DTD/sodipodi-0.dtd"
   xmlns="http://www.w3.org/2000/svg"
   xmlns:svg="http://www.w3.org/2000/svg"><sodipodi:namedview
     id="namedview1"
     pagecolor="#ffffff"
     bordercolor="#000000"
     borderopacity="0.25"
     inkscape:showpageshadow="2"
     inkscape:pageopacity="0.0"
     inkscape:pagecheckerboard="0"
     inkscape:deskcolor="#d1d1d1"
     inkscape:document-units="mm"
     inkscape:zoom="0.11981392"
     inkscape:cx="1452.2519"
     inkscape:cy="6773.0025"
     inkscape:window-width="1472"
     inkscape:window-height="828"
     inkscape:window-x="0"
     inkscape:window-y="37"
     inkscape:window-maximized="1"
     inkscape:current-layer="g3" /><defs
     id="defs1" /><g
     inkscape:label="Layer 1"
     inkscape:groupmode="layer"
     id="layer1"
     transform="translate(-600.30263,-1777.6054)"><g
       id="g3"
       inkscape:export-filename="../Desktop/logo.svg"
       inkscape:export-xdpi="256.56567"
       inkscape:export-ydpi="256.56567"
       style="fill:#2341ae;fill-opacity:1"><g
         id="text1-8-2"
         style="font-size:70.5556px;line-height:65.5942px;font-family:'Terminal Grotesque';-inkscape-font-specification:'Terminal Grotesque';letter-spacing:-0.8255px;stroke-width:0.264583;stroke-linecap:round;stroke-linejoin:round"
         aria-label="More Git Please"><path
           style="fill:#000000"
           d="m 600.30266,2006.8704 v -44.0973 h 11.02431 v 6.6146 h 2.20486 v 4.4097 h 2.20486 v 6.6146 h 2.20487 v 6.6146 h 2.20486 v 8.8194 h 2.20486 v -8.8194 h 2.20486 v -6.6146 h 2.20487 v -6.6146 h 2.20486 v -4.4097 h 2.20486 v -6.6146 h 11.02431 v 44.0973 h -6.61458 v -33.073 h -2.20487 v 4.4097 h -2.20486 v 8.8195 h -2.20486 v 8.8194 h -2.20486 v 6.6146 h -2.20487 v 4.4098 h -6.61458 v -4.4098 h -2.20487 v -6.6146 h -2.20486 v -8.8194 h -2.20486 v -8.8195 h -2.20486 v -4.4097 h -2.20487 v 33.073 z m 65.66488,-6.6146 v -2.2049 h 2.20487 v -15.434 h -2.20487 v -2.2049 h -8.81945 v 2.2049 h -2.20486 v 15.434 h 2.20486 v 2.2049 z m -8.81945,6.6146 v -2.2049 h -4.40972 v -2.2049 h -2.20486 v -4.4097 h -2.20487 v -15.434 h 2.20487 v -4.4098 h 2.20486 v -2.2048 h 4.40972 v -2.2049 h 8.81945 v 2.2049 h 4.40973 v 2.2048 h 2.20486 v 4.4098 h 2.20486 v 15.434 h -2.20486 v 4.4097 h -2.20486 v 2.2049 h -4.40973 v 2.2049 z m 23.29019,0 v -33.073 h 6.61459 v 4.4097 h 2.20486 v -2.2048 h 2.20486 v -2.2049 h 8.81945 v 2.2049 h 2.20487 v 2.2048 h 2.20486 v 4.4098 h -2.20486 v 2.2048 h -2.20487 v -2.2048 h -2.20486 v -2.2049 h -6.61459 v 2.2049 h -2.20486 v 2.2048 h -2.20486 v 22.0487 z m 46.30343,-19.8438 v -4.4097 h -2.20486 v -2.2049 h -8.81945 v 2.2049 h -2.20486 v 4.4097 z m -11.02431,19.8438 v -2.2049 h -4.40973 v -2.2049 h -2.20486 v -4.4097 h -2.20486 v -15.434 h 2.20486 v -4.4098 h 2.20486 v -2.2048 h 4.40973 v -2.2049 h 8.81945 v 2.2049 h 4.40972 v 2.2048 h 2.20487 v 4.4098 h 2.20486 v 8.8194 h -19.84376 v 6.6146 h 2.20486 v 2.2049 h 8.81945 v -2.2049 h 2.20486 v -2.2049 h 6.61459 v 4.4098 h -2.20486 v 2.2048 h -2.20487 v 2.2049 h -4.40972 v 2.2049 z"
           id="path19" /><path
           style="fill:#e7351f"
           d="m 773.04647,2006.8704 v -2.2049 h -6.61458 v -2.2049 h -2.20487 v -2.2048 h -2.20486 v -2.2049 h -2.20486 v -4.4097 h -2.20486 v -17.6389 h 2.20486 v -4.4097 h 2.20486 v -2.2049 h 2.20486 v -2.2049 h 2.20487 v -2.2048 h 6.61458 v -2.2049 h 11.02432 v 2.2049 h 6.61458 v 2.2048 h 2.20487 v 4.4098 h 2.20486 v 2.2048 h 2.20486 v 2.2049 h -8.81945 v -2.2049 h -2.20486 v -2.2048 h -4.40973 v -2.2049 h -6.61458 v 2.2049 h -4.40973 v 2.2048 h -2.20486 v 2.2049 h -2.20486 v 4.4097 h -2.20487 v 8.8195 h 2.20487 v 4.4097 h 2.20486 v 2.2048 h 2.20486 v 2.2049 h 4.40973 v 2.2049 h 6.61458 v -2.2049 h 4.40973 v -2.2049 h 2.20486 v -2.2048 h 2.20486 v -4.4097 H 777.4562 v -6.6146 h 19.84376 v 13.2291 h -2.20486 v 2.2049 h -2.20486 v 4.4097 h -2.20487 v 2.2049 h -6.61458 v 2.2049 z m 30.5938,0 v -33.073 h 6.61459 v 33.073 z m 0,-37.4827 v -6.6146 h 6.61459 v 6.6146 z m 17.0201,37.4827 v -26.4584 h -4.40972 v -6.6146 h 4.40972 v -8.8194 h 6.61459 v 8.8194 h 8.81945 v 6.6146 h -8.81945 v 26.4584 z"
           id="path20" /><path
           style="fill:#000000"
           d="m 882.67477,1980.412 v -2.2049 h 2.20486 v -6.6145 h -2.20486 v -2.2049 h -15.43404 v 11.0243 z m -22.04863,26.4584 v -44.0973 h 24.25349 v 2.2049 h 2.20486 v 2.2048 h 2.20487 v 2.2049 h 2.20486 v 11.0243 h -2.20486 v 2.2049 h -2.20487 v 2.2048 h -2.20486 v 2.2049 h -17.6389 v 19.8438 z m 34.31452,0 v -44.0973 h 6.61458 v 44.0973 z m 32.59194,-19.8438 v -4.4097 h -2.20486 v -2.2049 h -8.81946 v 2.2049 h -2.20486 v 4.4097 z m -11.02432,19.8438 v -2.2049 h -4.40972 v -2.2049 h -2.20486 v -4.4097 h -2.20487 v -15.434 h 2.20487 v -4.4098 h 2.20486 v -2.2048 h 4.40972 v -2.2049 h 8.81946 v 2.2049 h 4.40972 v 2.2048 h 2.20486 v 4.4098 h 2.20487 v 8.8194 h -19.84377 v 6.6146 h 2.20486 v 2.2049 h 8.81946 v -2.2049 h 2.20486 v -2.2049 h 6.61459 v 4.4098 h -2.20487 v 2.2048 h -2.20486 v 2.2049 h -4.40972 v 2.2049 z m 40.24008,-6.6146 v -2.2049 h 2.20486 v -2.2049 h 2.20486 v -11.0243 h -2.20486 v -2.2048 h -2.20486 v -2.2049 h -8.81945 v 2.2049 h -2.20486 v 15.434 h 2.20486 v 2.2049 z m -8.81945,6.6146 v -2.2049 h -4.40973 v -2.2049 h -2.20486 v -4.4097 h -2.20486 v -15.434 h 2.20486 v -4.4098 h 2.20486 v -2.2048 h 4.40973 v -2.2049 h 8.81945 v 2.2049 h 2.20486 v 2.2048 h 2.20486 v -4.4097 h 6.61459 v 33.073 h -6.61459 v -4.4098 h -2.20486 v 2.2049 h -2.20486 v 2.2049 z m 30.24929,0 v -2.2049 h -2.20486 v -2.2049 h -2.20486 v -4.4097 h 2.20486 v -2.2049 h 2.20486 v 2.2049 h 2.20486 v 2.2049 h 2.20487 v 2.2048 h 4.40972 v -2.2048 h 2.20486 v -4.4098 h -2.20486 v -2.2048 h -2.20486 v -2.2049 h -4.40973 v -2.2048 h -2.20486 v -2.2049 h -2.20486 v -2.2049 h -2.20486 v -6.6146 h 2.20486 v -2.2048 h 2.20486 v -2.2049 h 13.22918 v 2.2049 h 2.20486 v 6.6146 h -4.40973 v -2.2049 h -2.20486 v -2.2049 h -4.40972 v 2.2049 h -2.20487 v 2.2049 h 2.20487 v 2.2048 h 2.20486 v 2.2049 h 4.40972 v 2.2049 h 2.20487 v 2.2048 h 2.20486 v 2.2049 h 2.20486 v 8.8194 h -2.20486 v 2.2049 h -2.20486 v 2.2049 z m 42.5138,-19.8438 v -4.4097 h -2.2048 v -2.2049 h -8.8195 v 2.2049 h -2.2049 v 4.4097 z m -11.0243,19.8438 v -2.2049 h -4.4097 v -2.2049 h -2.2049 v -4.4097 h -2.2048 v -15.434 h 2.2048 v -4.4098 h 2.2049 v -2.2048 h 4.4097 v -2.2049 h 8.8195 v 2.2049 h 4.4097 v 2.2048 h 2.2048 v 4.4098 h 2.2049 v 8.8194 h -19.8438 v 6.6146 h 2.2049 v 2.2049 h 8.8195 v -2.2049 h 2.2048 v -2.2049 h 6.6146 v 4.4098 h -2.2049 v 2.2048 h -2.2048 v 2.2049 h -4.4097 v 2.2049 z"
           id="path21" /></g><path
         style="fill:#e7351f;fill-opacity:1;stroke:none"
         d="m 807.94921,1938.3054 v -0.9623 h -21.46983 -21.46984 v -0.9623 -0.9622 h -1.9518 -1.95181 v -0.9623 c 0,-0.9165 -0.0465,-0.9623 -0.9759,-0.9623 h -0.9759 v -1.9245 -1.9246 h 0.9759 0.9759 v -1.9245 -1.9246 h 0.9759 c 0.92943,0 0.97591,-0.046 0.97591,-0.9623 0,-0.9164 -0.0465,-0.9622 -0.97591,-0.9622 -0.92943,0 -0.9759,-0.046 -0.9759,-0.9623 0,-0.9165 -0.0465,-0.9623 -0.9759,-0.9623 h -0.9759 v -1.9246 -1.9245 h -0.9759 -0.9759 v -3.8491 -3.8491 h 0.9759 0.9759 v -1.9245 -1.9246 h 0.9759 0.9759 v -2.8868 -2.8868 h 0.9759 0.97591 v -4.8114 -4.8114 h 0.9759 c 0.92943,0 0.9759,-0.046 0.9759,-0.9623 0,-0.9164 0.0465,-0.9622 0.9759,-0.9622 h 0.9759 v -1.9246 -1.9245 h -0.9759 -0.9759 v -1.9246 -1.9245 h -0.9759 -0.9759 v -2.8869 -2.8868 h -0.97591 -0.9759 v -7.6982 -7.6982 h -0.9759 -0.9759 v -2.8868 -2.8868 h -0.9759 -0.9759 v -4.8114 -4.8115 h -0.97591 -0.9759 v -12.5095 -12.5096 h 0.9759 0.97591 v -2.8867 -2.8869 h 0.9759 0.9759 v -9.6227 -9.6228 h 0.9759 0.9759 v -1.9245 -1.9247 h 0.9759 c 0.92943,0 0.97591,-0.046 0.97591,-0.9622 0,-0.9164 0.0465,-0.9622 0.9759,-0.9622 h 0.9759 v -4.8114 -4.8114 h 0.9759 c 0.92943,0 0.9759,-0.046 0.9759,-0.9622 v -0.9623 h 5.85541 5.85541 v 0.9623 c 0,0.9164 0.0465,0.9622 0.9759,0.9622 0.92943,0 0.97591,0.046 0.97591,0.9622 0,0.9166 0.0465,0.9622 0.9759,0.9622 0.92943,0 0.9759,0.046 0.9759,0.9623 v 0.9622 h 2.9277 2.92771 v 0.9623 c 0,0.9165 0.0465,0.9623 0.9759,0.9623 h 0.9759 v 1.9245 1.9246 h 0.9759 c 0.92943,0 0.97591,0.046 0.97591,0.9623 0,0.9164 0.0465,0.9622 0.9759,0.9622 h 0.9759 v 1.9246 1.9245 h 0.9759 c 0.92943,0 0.9759,0.046 0.9759,0.9623 0,0.9165 0.0465,0.9623 0.9759,0.9623 0.92943,0 0.97591,0.046 0.97591,0.9622 0,0.9165 0.0465,0.9623 0.9759,0.9623 0.92943,0 0.9759,0.046 0.9759,0.9623 0,0.9165 0.0465,0.9623 0.9759,0.9623 0.92943,0 0.9759,0.046 0.9759,0.9623 0,0.9164 0.0465,0.9622 0.9759,0.9622 h 0.9759 v 1.9246 1.9245 h 0.97591 c 0.92943,0 0.9759,0.046 0.9759,0.9623 0,0.9165 0.0465,0.9623 0.9759,0.9623 h 0.9759 v 1.9245 1.9246 h 0.9759 0.9759 v 1.9245 1.9246 h 0.97591 0.9759 v 1.9245 1.9246 h 0.9759 c 0.92943,0 0.9759,0.046 0.9759,0.9623 0,0.9164 0.0465,0.9622 0.9759,0.9622 h 0.9759 v -1.9245 -1.9246 h 0.97591 0.9759 v -1.9245 -1.9246 h 3.9036 3.90361 v 7.6982 7.6982 h 0.9759 0.9759 v 2.8869 2.8868 h 0.97591 0.9759 v 2.8868 2.8868 h 0.9759 0.9759 v 1.9246 1.9245 h 0.9759 0.9759 v 16.3587 16.3587 h 2.92771 2.9277 v 0.9622 c 0,0.9165 0.0465,0.9623 0.97591,0.9623 h 0.9759 v 1.9246 1.9245 h 0.9759 c 0.92943,0 0.9759,0.046 0.9759,0.9623 v 0.9623 h 2.92771 2.9277 v 0.9622 0.9623 h 1.9518 1.95181 v 0.9623 c 0,0.9164 0.0465,0.9623 0.9759,0.9623 0.92943,0 0.9759,0.046 0.9759,0.9622 0,0.9165 0.0465,0.9623 0.9759,0.9623 h 0.9759 v 1.9246 1.9245 h 0.97591 c 0.92943,0 0.9759,0.046 0.9759,0.9623 0,0.9164 0.0465,0.9623 0.9759,0.9623 0.92943,0 0.9759,0.046 0.9759,0.9622 0,0.9165 0.0465,0.9623 0.9759,0.9623 0.92943,0 0.9759,0.046 0.9759,0.9623 v 0.9623 h 1.95181 1.9518 v 0.9622 c 0,0.9165 0.0465,0.9623 0.9759,0.9623 h 0.9759 v 1.9246 1.9245 h 0.9759 0.97591 v 4.8114 4.8114 h 0.9759 0.9759 v 5.7736 5.7737 h -0.9759 -0.9759 v 1.9245 1.9246 h -0.97591 c -0.92943,0 -0.9759,0.046 -0.9759,0.9622 v 0.9623 h -1.9518 -1.9518 v 0.9623 0.9623 h -2.92771 -2.9277 v 0.9622 0.9623 h -5.85541 -5.85541 v 0.9623 0.9622 h -19.51804 -19.51803 z m 29.27705,-3.8491 v -0.9623 h 2.92771 2.9277 v -0.9623 c 0,-0.9164 0.0465,-0.9622 0.9759,-0.9622 0.92943,0 0.9759,-0.046 0.9759,-0.9623 0,-0.9165 0.0465,-0.9623 0.97591,-0.9623 0.92943,0 0.9759,-0.046 0.9759,-0.9623 0,-0.9164 0.0465,-0.9622 0.9759,-0.9622 h 0.9759 v -1.9246 -1.9245 h 0.9759 0.9759 v -1.9246 -1.9246 h 0.97591 0.9759 v -2.8868 -2.8868 h 0.9759 0.9759 v -4.8114 -4.8113 h 0.9759 0.9759 v -2.8869 -2.8868 h -0.9759 -0.9759 v -1.9245 -1.9246 h -0.9759 c -0.92943,0 -0.9759,-0.046 -0.9759,-0.9623 0,-0.9164 -0.0465,-0.9622 -0.9759,-0.9622 -0.92943,0 -0.97591,-0.046 -0.97591,-0.9623 0,-0.9165 -0.0465,-0.9623 -0.9759,-0.9623 -0.92943,0 -0.9759,-0.046 -0.9759,-0.9623 v -0.9622 h -1.9518 -1.95181 v 0.9622 c 0,0.9165 -0.0465,0.9623 -0.9759,0.9623 -0.92943,0 -0.9759,0.046 -0.9759,0.9623 0,0.9164 -0.0465,0.9623 -0.9759,0.9623 h -0.9759 v 5.7736 5.7737 h -0.9759 -0.97591 v 1.9245 1.9246 h -0.9759 -0.9759 v 1.9245 1.9246 h -0.9759 c -0.92943,0 -0.9759,0.046 -0.9759,0.9622 0,0.9165 -0.0465,0.9623 -0.9759,0.9623 -0.92943,0 -0.97591,0.046 -0.97591,0.9623 0,0.9164 -0.0465,0.9623 -0.9759,0.9623 -0.92943,0 -0.9759,0.046 -0.9759,0.9622 0,0.9165 -0.0465,0.9623 -0.9759,0.9623 -0.92943,0 -0.9759,0.046 -0.9759,0.9623 0,0.9164 -0.0465,0.9622 -0.9759,0.9622 -0.92943,0 -0.97591,0.046 -0.97591,0.9622 v 0.9622 h -2.9277 -2.92771 v 0.9623 c 0,0.9164 -0.0465,0.9622 -0.9759,0.9622 h -0.9759 v 1.9246 1.9246 h 0.9759 c 0.92943,0 0.9759,0.046 0.9759,0.9622 0,0.9165 0.0465,0.9623 0.97591,0.9623 0.92943,0 0.9759,0.046 0.9759,0.9623 0,0.9164 0.0465,0.9622 0.9759,0.9622 0.92943,0 0.9759,0.046 0.9759,0.9623 v 0.9623 h 2.92771 2.9277 v 0.9623 0.9623 h 2.92771 2.9277 z m 23.42164,-9.6228 c 0,-0.9164 0.0465,-0.9622 0.9759,-0.9622 0.92943,0 0.9759,-0.046 0.9759,-0.9623 0,-0.9165 0.0465,-0.9623 0.97591,-0.9623 0.92943,0 0.9759,-0.046 0.9759,-0.9623 0,-0.9164 0.0465,-0.9622 0.9759,-0.9622 h 0.9759 v -5.7737 -5.7736 h -0.9759 -0.9759 v -1.9246 -1.9245 h -0.9759 c -0.92944,0 -0.97591,-0.046 -0.97591,-0.9623 v -0.9623 h -1.9518 -1.9518 v 2.8868 2.8869 h -0.9759 -0.97591 v 4.8113 4.8114 h -0.9759 -0.9759 v 1.9246 1.9245 h 0.9759 0.9759 v 1.9246 1.9245 h 1.95181 1.9518 z m -91.73475,-4.8114 v -1.9246 h -0.97591 c -0.92943,0 -0.9759,-0.046 -0.9759,-0.9623 0,-0.9164 -0.0465,-0.9622 -0.9759,-0.9622 h -0.9759 v -3.849 -3.8491 h 0.9759 0.9759 v -4.8114 -4.8114 h 0.9759 0.97591 v -1.9246 -1.9245 h 0.9759 c 0.92943,0 0.9759,-0.046 0.9759,-0.9624 0,-0.9164 -0.0465,-0.9621 -0.9759,-0.9621 -0.92943,0 -0.9759,-0.046 -0.9759,-0.9623 0,-0.9165 -0.0465,-0.9623 -0.97591,-0.9623 -0.92943,0 -0.9759,0.046 -0.9759,0.9623 0,0.9164 -0.0465,0.9623 -0.9759,0.9623 h -0.9759 v 5.7736 5.7737 h -0.9759 -0.9759 v 1.9245 1.9246 h -0.97591 -0.9759 v 4.8113 4.8114 h 0.9759 c 0.92943,0 0.97591,0.046 0.97591,0.9623 0,0.9164 0.0465,0.9622 0.9759,0.9622 0.92943,0 0.9759,0.046 0.9759,0.9623 v 0.9622 h 1.9518 1.95181 z m 27.32524,0.9622 v -0.9622 h 1.95181 1.9518 v -0.9622 c 0,-0.9166 0.0465,-0.9623 0.9759,-0.9623 h 0.9759 v -3.8491 -3.8491 h -0.9759 -0.9759 v 1.9246 1.9245 h -0.9759 c -0.92943,0 -0.9759,0.046 -0.9759,0.9623 0,0.9164 -0.0465,0.9623 -0.97591,0.9623 -0.92943,0 -0.9759,0.046 -0.9759,0.9622 v 0.9623 h -1.9518 -1.9518 v 0.9623 0.9622 h -2.92771 -2.9277 v 0.9622 0.9622 h 4.8795 4.87951 z m -5.85541,-5.7736 v -0.9622 h 1.95181 1.9518 v -1.9245 -1.9248 h 0.9759 0.9759 v -1.9245 -1.9246 h -0.9759 -0.9759 v -1.9245 -1.9246 h -0.9759 c -0.92943,0 -0.9759,-0.046 -0.9759,-0.9623 0,-0.9164 -0.0465,-0.9622 -0.97591,-0.9622 -0.92943,0 -0.9759,-0.046 -0.9759,-0.9623 0,-0.9165 -0.0465,-0.9622 -0.9759,-0.9622 -0.92943,0 -0.9759,-0.046 -0.9759,-0.9623 0,-0.9164 -0.0465,-0.9622 -0.9759,-0.9622 -0.92943,0 -0.9759,-0.046 -0.9759,-0.9622 0,-0.9166 -0.0465,-0.9623 -0.97591,-0.9623 -0.92943,0 -0.9759,-0.046 -0.9759,-0.9623 0,-0.9164 -0.0465,-0.9622 -0.9759,-0.9622 h -0.9759 v -2.8869 -2.8868 h -0.9759 -0.9759 v -1.9245 -1.9246 h -0.97591 -0.9759 v -4.8114 -4.8113 h -0.9759 -0.9759 v -2.8869 -2.8868 h -0.9759 c -0.92943,0 -0.9759,-0.046 -0.9759,-0.9623 0,-0.9164 -0.0465,-0.9622 -0.97591,-0.9622 -0.92943,0 -0.9759,-0.046 -0.9759,-0.9623 v -0.9623 h -2.9277 -2.92771 v -0.9623 c 0,-0.9164 0.0465,-0.9622 0.9759,-0.9622 0.92943,0 0.97591,-0.046 0.97591,-0.9623 v -0.9623 h 1.9518 1.9518 v -1.9245 -1.9246 h -0.9759 -0.9759 v -5.7736 -5.7737 h -2.92771 -2.9277 v 0.9623 0.9623 h -1.9518 -1.95181 v -0.9623 c 0,-0.9165 0.0465,-0.9623 0.9759,-0.9623 0.92943,0 0.97591,-0.046 0.97591,-0.9623 0,-0.9164 0.0465,-0.9622 0.9759,-0.9622 h 0.9759 v -2.8869 -2.8868 h -0.9759 c -0.92943,0 -0.9759,-0.046 -0.9759,-0.9622 v -0.9623 h -1.95181 -1.9518 v -0.9623 -0.9623 h 1.9518 1.95181 v -3.8491 -3.8491 h -2.92771 -2.9277 v 8.6605 8.6605 h 0.9759 0.9759 v 2.8868 2.8868 h 0.9759 c 0.92943,0 0.9759,0.046 0.9759,0.9623 0,0.9164 -0.0465,0.9623 -0.9759,0.9623 h -0.9759 v 1.9245 1.9246 h 0.9759 0.9759 v 2.8868 2.8868 h 0.9759 0.97591 v 6.7359 6.736 h 0.9759 0.9759 v 3.8491 3.8491 h 0.9759 c 0.92943,0 0.9759,0.046 0.9759,0.9622 0,0.9165 0.0465,0.9623 0.9759,0.9623 h 0.97591 v 1.9246 1.9245 h 0.9759 c 0.92943,0 0.9759,0.046 0.9759,0.9623 0,0.9164 0.0465,0.9623 0.9759,0.9623 0.92943,0 0.9759,0.046 0.9759,0.9622 v 0.9623 h 3.90361 3.90361 v 0.9623 c 0,0.9164 -0.0465,0.9623 -0.97591,0.9623 -0.92943,0 -0.9759,0.046 -0.9759,0.9622 v 0.9623 h -1.9518 -1.9518 v 0.9623 c 0,0.9164 -0.0465,0.9623 -0.97591,0.9623 h -0.9759 v 2.8868 2.8868 h -0.9759 -0.9759 v 3.8491 3.8491 h 0.9759 c 0.92943,0 0.9759,0.046 0.9759,0.9622 0,0.9164 0.0465,0.9622 0.9759,0.9622 0.92943,0 0.97591,0.046 0.97591,0.9622 0,0.9166 0.0465,0.9623 0.9759,0.9623 0.92943,0 0.9759,0.046 0.9759,0.9623 v 0.9623 h 6.83131 6.83131 z m 35.13246,0 v -0.9622 h 1.9518 1.95181 v -0.9624 c 0,-0.9164 0.0465,-0.9621 0.9759,-0.9621 0.92943,0 0.9759,-0.046 0.9759,-0.9623 0,-0.9165 0.0465,-0.9623 0.9759,-0.9623 h 0.9759 v -1.9245 -1.9246 h 0.97591 0.9759 v -1.9245 -1.9247 h 0.9759 0.9759 v -3.849 -3.8491 h 0.9759 0.9759 v -2.8868 -2.8868 h -0.9759 -0.9759 v -1.9246 -1.9245 h -1.9518 -1.95181 v -1.9247 -1.9245 h -0.9759 -0.9759 v -17.321 -17.3208 h -0.9759 -0.9759 v -1.9247 -1.9245 h -0.9759 -0.97591 v -2.8869 -2.8867 h -0.9759 -0.9759 v -2.8869 -2.8867 h -0.9759 -0.9759 v -7.6983 -7.6981 h -1.95181 -1.9518 v 0.9621 c 0,0.9165 -0.0465,0.9622 -0.9759,0.9622 h -0.9759 v 5.7737 5.7736 h -0.9759 c -0.92943,0 -0.97591,-0.046 -0.97591,-0.9622 0,-0.9165 -0.0465,-0.9622 -0.9759,-0.9622 h -0.9759 v -1.9247 -1.9245 h -0.9759 c -0.92943,0 -0.9759,-0.046 -0.9759,-0.9623 0,-0.9164 -0.0465,-0.9621 -0.9759,-0.9621 h -0.97591 v -1.9247 -1.9246 h -0.9759 -0.9759 v -2.8868 -2.8868 h -0.9759 c -0.92943,0 -0.9759,-0.046 -0.9759,-0.9622 v -0.9623 h -1.95181 -1.9518 v -2.8867 -2.8869 h -0.9759 c -0.92943,0 -0.9759,-0.046 -0.9759,-0.9622 0,-0.9164 -0.0465,-0.9623 -0.9759,-0.9623 -0.92943,0 -0.9759,-0.046 -0.9759,-0.9622 0,-0.9165 -0.0465,-0.9623 -0.97591,-0.9623 -0.92943,0 -0.9759,-0.046 -0.9759,-0.9623 0,-0.9165 -0.0465,-0.9623 -0.9759,-0.9623 h -0.9759 v -1.9245 -1.9246 h -1.9518 -1.95181 v 1.9246 1.9245 h 0.9759 c 0.92943,0 0.97591,0.046 0.97591,0.9623 0,0.9165 0.0465,0.9623 0.9759,0.9623 h 0.9759 v 1.9245 1.9246 h 0.9759 c 0.92943,0 0.9759,0.046 0.9759,0.9622 0,0.9165 0.0465,0.9623 0.9759,0.9623 0.92943,0 0.97591,0.046 0.97591,0.9623 0,0.9165 0.0465,0.9623 0.9759,0.9623 h 0.9759 v 1.9245 1.9246 h 0.9759 0.9759 v 2.8868 2.8868 h 0.9759 0.9759 v 1.9246 1.9245 h 0.97591 0.9759 v 1.9246 1.9245 h 0.9759 c 0.92943,0 0.9759,0.046 0.9759,0.9623 0,0.9165 0.0465,0.9623 0.9759,0.9623 h 0.9759 v 1.9245 1.9246 h 0.97591 c 0.92943,0 0.9759,0.046 0.9759,0.9622 0,0.9165 0.0465,0.9623 0.9759,0.9623 0.92943,0 0.9759,0.046 0.9759,0.9623 v 0.9623 h -1.9518 -1.95181 v -0.9623 c 0,-0.9165 -0.0465,-0.9623 -0.9759,-0.9623 -0.92943,0 -0.9759,-0.046 -0.9759,-0.9623 0,-0.9164 -0.0465,-0.9622 -0.9759,-0.9622 -0.92943,0 -0.9759,-0.046 -0.9759,-0.9623 0,-0.9165 -0.0465,-0.9623 -0.9759,-0.9623 h -0.97591 v -1.9245 -1.9246 h -0.9759 c -0.92943,0 -0.9759,-0.046 -0.9759,-0.9623 0,-0.9164 -0.0465,-0.9622 -0.9759,-0.9622 h -0.9759 v -1.9246 -1.9245 h -0.9759 -0.9759 v -2.8868 -2.8869 h -0.97591 c -0.92943,0 -0.9759,-0.046 -0.9759,-0.9623 v -0.9622 h -2.9277 -2.92771 v -4.8114 -4.8114 h -0.9759 c -0.92943,0 -0.9759,-0.046 -0.9759,-0.9622 0,-0.9165 -0.0465,-0.9623 -0.9759,-0.9623 h -0.9759 v -1.9246 -1.9245 h -0.97591 -0.9759 v -1.9246 -1.9245 h -0.9759 c -0.92943,0 -0.9759,-0.046 -0.9759,-0.9623 v -0.9623 h -2.92771 -2.9277 v -0.9622 -0.9623 h 2.9277 2.92771 v -0.9623 c 0,-0.9165 -0.0465,-0.9623 -0.9759,-0.9623 h -0.9759 v -1.9245 -1.9246 h -0.97591 -0.9759 v -1.9245 -1.9246 h -1.9518 -1.9518 v 0.9623 c 0,0.9165 -0.0465,0.9623 -0.97591,0.9623 h -0.9759 v 3.8491 3.8491 h -1.9518 -1.9518 v 1.9245 1.9246 h 0.9759 c 0.92943,0 0.9759,0.046 0.9759,0.9622 0,0.9165 -0.0465,0.9623 -0.9759,0.9623 h -0.9759 v 2.8868 2.8869 h 0.9759 0.9759 v 1.9245 1.9246 h 0.9759 c 0.92943,0 0.9759,0.046 0.9759,0.9623 0,0.9164 0.0465,0.9622 0.9759,0.9622 h 0.97591 v 1.9246 1.9245 h 0.9759 0.9759 v 2.8868 2.8869 h 0.9759 0.9759 v 1.9245 1.9246 h 0.9759 0.97591 v 1.9245 1.9246 h 0.9759 0.9759 v 1.9245 1.9246 h 0.9759 0.9759 v 2.8868 2.8868 h 0.9759 0.97591 v 1.9246 1.9245 h 0.9759 0.9759 v 1.9246 1.9245 h 0.9759 0.9759 v 1.9246 1.9245 h 1.95181 1.9518 v 1.9246 1.9245 h -1.9518 -1.95181 v -0.9623 c 0,-0.9164 -0.0465,-0.9622 -0.9759,-0.9622 -0.92943,0 -0.9759,-0.046 -0.9759,-0.9623 0,-0.9165 -0.0465,-0.9623 -0.9759,-0.9623 h -0.9759 v -2.8868 -2.8868 h -0.97591 c -0.92943,0 -0.9759,-0.046 -0.9759,-0.9623 0,-0.9165 -0.0465,-0.9623 -0.9759,-0.9623 h -0.9759 v -1.9245 -1.9246 h -3.90361 -3.9036 v -0.9622 c 0,-0.9165 0.0465,-0.9623 0.9759,-0.9623 0.92943,0 0.9759,-0.046 0.9759,-0.9623 0,-0.9165 0.0465,-0.9623 0.9759,-0.9623 h 0.9759 v -2.8868 -2.8868 h -0.9759 -0.9759 v -1.9246 -1.9245 h -0.9759 c -0.92943,0 -0.9759,-0.046 -0.9759,-0.9623 v -0.9623 h -1.95181 -1.9518 v -0.9622 -0.9623 h 1.9518 1.95181 v -0.9623 c 0,-0.9164 -0.0465,-0.9623 -0.97591,-0.9623 h -0.9759 v -1.9245 -1.9246 h -0.9759 -0.9759 v -1.9245 -1.9246 h -0.9759 -0.9759 v 2.8869 2.8868 h -0.97591 -0.9759 v 3.8491 3.8491 h 0.9759 0.97591 v 3.8491 3.8491 h 0.9759 0.9759 v 1.9245 1.9246 h 0.9759 0.9759 v 1.9245 1.9246 h 0.9759 0.97591 v 3.8491 3.8491 h 0.9759 0.9759 v 7.6982 7.6982 h 0.9759 0.9759 v 3.8491 3.8491 h 0.9759 0.97591 v 2.8868 2.8868 h 0.9759 0.9759 v 1.9246 1.9245 h 0.9759 0.9759 v 1.9246 1.9245 h 0.9759 0.97591 v 1.9246 1.9245 h 0.9759 0.9759 v 1.9246 1.9245 h 0.9759 c 0.92943,0 0.9759,0.046 0.9759,0.9623 0,0.9164 0.0465,0.9623 0.9759,0.9623 0.92943,0 0.97591,0.046 0.97591,0.9622 0,0.9165 0.0465,0.9623 0.9759,0.9623 0.92943,0 0.9759,0.046 0.9759,0.9623 0,0.9164 0.0465,0.9623 0.9759,0.9623 0.92943,0 0.9759,0.046 0.9759,0.9622 v 0.9623 h 1.95181 1.9518 v 0.9623 c 0,0.9164 0.0465,0.9623 0.9759,0.9623 0.92943,0 0.9759,0.046 0.9759,0.9622 0,0.9165 0.0465,0.9623 0.9759,0.9623 0.92943,0 0.9759,0.046 0.9759,0.9623 0,0.9164 0.0465,0.9623 0.97591,0.9623 0.92943,0 0.9759,0.046 0.9759,0.9622 0,0.9165 0.0465,0.9623 0.9759,0.9623 0.92943,0 0.9759,0.046 0.9759,0.9623 0,0.9164 0.0465,0.9623 0.9759,0.9623 0.92943,0 0.9759,0.046 0.9759,0.9622 0,0.9165 0.0465,0.9623 0.97591,0.9623 h 0.9759 v 1.9246 1.9245 h 0.9759 c 0.92943,0 0.9759,0.046 0.9759,0.9623 0,0.9164 0.0465,0.9623 0.9759,0.9623 0.92943,0 0.9759,0.046 0.9759,0.9622 v 0.9623 h 1.95181 1.9518 v 0.9623 0.9623 h 2.92771 2.9277 z m -1.9518,-73.133 v -2.8868 h -0.9759 -0.97591 v -2.8868 -2.8868 h -1.9518 -1.9518 v -1.9246 -1.9246 h 0.9759 c 0.92943,0 0.9759,0.046 0.9759,0.9623 0,0.9164 0.0465,0.9623 0.9759,0.9623 0.92943,0 0.9759,0.046 0.9759,0.9622 0,0.9165 0.0465,0.9623 0.97591,0.9623 h 0.9759 v 1.9246 1.9245 h 0.9759 0.9759 v 3.8491 3.8491 h -0.9759 -0.9759 z m -21.46984,0 c 0,-0.9165 -0.0465,-0.9621 -0.9759,-0.9621 -0.92943,0 -0.9759,-0.046 -0.9759,-0.9624 0,-0.9164 -0.0465,-0.9622 -0.9759,-0.9622 -0.92943,0 -0.9759,-0.046 -0.9759,-0.9622 0,-0.9165 -0.0465,-0.9623 -0.97591,-0.9623 -0.92943,0 -0.9759,-0.046 -0.9759,-0.9622 0,-0.9165 -0.0465,-0.9623 -0.9759,-0.9623 h -0.9759 v -1.9246 -1.9245 h -0.9759 -0.9759 v -1.9246 -1.9245 h -0.97591 -0.9759 v -1.9247 -1.9245 h -0.9759 c -0.92943,0 -0.9759,-0.046 -0.9759,-0.9622 v -0.9623 h -1.9518 -1.95181 v -3.8491 -3.8491 h -0.9759 -0.9759 v -1.9245 -1.9246 h -0.9759 -0.9759 v -1.9245 -1.9247 h -0.97591 -0.9759 v -1.9245 -1.9245 h -0.9759 c -0.92943,0 -0.9759,-0.046 -0.9759,-0.9622 V 1800.7 h -1.9518 -1.95181 v -0.9622 c 0,-0.9165 -0.0465,-0.9623 -0.9759,-0.9623 -0.92943,0 -0.9759,-0.046 -0.9759,-0.9623 0,-0.9164 0.0465,-0.9622 0.9759,-0.9622 0.92943,0 0.9759,0.046 0.9759,0.9622 v 0.9623 h 1.95181 1.9518 v -1.9245 -1.9246 h -0.9759 c -0.92943,0 -0.9759,-0.046 -0.9759,-0.9623 0,-0.9164 -0.0465,-0.9622 -0.97591,-0.9622 h -0.9759 v -1.9246 -1.9245 h 0.9759 c 0.92943,0 0.97591,0.046 0.97591,0.9622 0,0.9165 0.0465,0.9622 0.9759,0.9622 0.92943,0 0.9759,0.046 0.9759,0.9623 0,0.9165 0.0465,0.9622 0.9759,0.9622 h 0.9759 v 1.9246 1.9247 h 0.9759 0.97591 v 1.9245 1.9245 h 0.9759 0.9759 v 1.9246 1.9246 h 0.9759 0.9759 v 1.9245 1.9246 h 0.9759 0.97591 v 1.9245 1.9246 h 0.9759 c 0.92943,0 0.9759,0.046 0.9759,0.9622 0,0.9165 0.0465,0.9623 0.9759,0.9623 h 0.9759 v 1.9246 1.9245 h 0.9759 0.97591 v 2.8869 2.8868 h 0.9759 0.9759 v 1.9245 1.9246 h 0.9759 0.9759 v 1.9245 1.9246 h 0.9759 c 0.92943,0 0.97591,0.046 0.97591,0.9622 0,0.9165 0.0465,0.9623 0.9759,0.9623 h 0.9759 v 1.9246 1.9245 h 0.9759 c 0.92943,0 0.9759,0.046 0.9759,0.9623 0,0.9165 0.0465,0.9623 0.9759,0.9623 0.92943,0 0.9759,0.046 0.9759,0.9622 0,0.9165 0.0465,0.9623 0.97591,0.9623 0.92943,0 0.9759,0.046 0.9759,0.9623 v 0.9623 h -1.95181 -1.9518 z m -33.18065,-26.9437 c 0,-0.9165 0.0465,-0.9622 0.9759,-0.9622 0.92943,0 0.9759,0.046 0.9759,0.9622 0,0.9165 -0.0465,0.9623 -0.9759,0.9623 -0.92943,0 -0.9759,-0.046 -0.9759,-0.9623 z m 5.85541,-29.8305 v -1.9246 h 0.9759 0.9759 v 1.9246 1.9245 h -0.9759 -0.9759 z m -3.90361,51.9628 v -1.9245 h -0.9759 -0.9759 v -2.8869 -2.8868 h -0.97591 -0.9759 v 2.8868 2.8869 h 0.9759 0.97591 v 1.9245 1.9246 h 0.9759 0.9759 z m -9.75902,-14.4341 c 0,-0.9164 0.0465,-0.9621 0.9759,-0.9621 h 0.97591 v -5.7736 -5.7738 h -0.97591 -0.9759 v 1.9247 1.9245 h -0.9759 -0.9759 v 2.8869 2.8867 h -0.9759 -0.9759 v 1.9246 1.9246 h 1.9518 1.9518 z m 1.95181,-15.3964 c 0,-0.9164 0.0465,-0.9623 0.9759,-0.9623 h 0.9759 v -6.7358 -6.7358 h -0.9759 c -0.92943,0 -0.9759,0.046 -0.9759,0.9622 0,0.9164 -0.0465,0.9622 -0.97591,0.9622 h -0.9759 v 6.7361 6.7358 h 0.9759 c 0.92943,0 0.97591,-0.046 0.97591,-0.9624 z m 27.32524,-16.3587 v -1.9245 h -0.9759 c -0.92943,0 -0.9759,-0.046 -0.9759,-0.9623 0,-0.9165 -0.0465,-0.9623 -0.9759,-0.9623 -0.92943,0 -0.9759,-0.046 -0.9759,-0.962 0,-0.9167 -0.0465,-0.9624 -0.97591,-0.9624 h -0.9759 v 1.9245 1.9247 h 0.9759 0.97591 v 1.9245 1.9246 h 1.9518 1.9518 z m -21.46983,-6.7359 v -2.8868 h 0.9759 c 0.92943,0 0.9759,-0.046 0.9759,-0.9622 0,-0.9164 -0.0465,-0.9622 -0.9759,-0.9622 -0.92943,0 -0.9759,0.046 -0.9759,0.9622 0,0.9166 -0.0465,0.9622 -0.97591,0.9622 h -0.9759 v 2.8868 2.8868 h 0.9759 0.97591 z"
         id="path8-9-4-1-8-7" /></g></g></svg>
