<?xml version="1.0" encoding="UTF-8" standalone="no"?>
<!-- Created with Inkscape (http://www.inkscape.org/) -->

<svg
   width="60.279045mm"
   height="31.479797mm"
   viewBox="0 0 60.279045 31.479797"
   version="1.1"
   id="svg1"
   inkscape:version="1.3 (0e150ed, 2023-07-21)"
   sodipodi:docname="moresqlplease logos.svg"
   xml:space="preserve"
   xmlns:inkscape="http://www.inkscape.org/namespaces/inkscape"
   xmlns:sodipodi="http://sodipodi.sourceforge.net/DTD/sodipodi-0.dtd"
   xmlns="http://www.w3.org/2000/svg"
   xmlns:svg="http://www.w3.org/2000/svg"><sodipodi:namedview
     id="namedview1"
     pagecolor="#ffffff"
     bordercolor="#000000"
     borderopacity="0.25"
     inkscape:showpageshadow="2"
     inkscape:pageopacity="0.0"
     inkscape:pagecheckerboard="0"
     inkscape:deskcolor="#d1d1d1"
     inkscape:document-units="mm"
     inkscape:zoom="1.2394118"
     inkscape:cx="341.69435"
     inkscape:cy="973.44566"
     inkscape:window-width="1472"
     inkscape:window-height="828"
     inkscape:window-x="0"
     inkscape:window-y="37"
     inkscape:window-maximized="1"
     inkscape:current-layer="layer1" /><defs
     id="defs1" /><g
     inkscape:label="Layer 1"
     inkscape:groupmode="layer"
     id="layer1"
     transform="translate(-112.20411,-208.25083)"><g
       id="g8"><g
         id="g7"
         transform="matrix(0.48228107,0,0,0.48228107,112.33661,208.38545)"
         style="fill:#000000;stroke:#000000;stroke-width:0.549472;stroke-dasharray:none"><path
           d="M 58.008,22.73 A 4.049,4.049 0 0 0 57.935,17.52 3.957,3.957 0 0 0 56,16.322 l 1.634,-1.634 A 4.073,4.073 0 0 0 57.9,9.072 3.961,3.961 0 0 0 55.653,7.81 4.047,4.047 0 0 0 55.069,3.416 3.951,3.951 0 0 0 52.209,2.085 4,4 0 0 0 49.604,2.954 3.961,3.961 0 0 0 48.404,0.991 4.077,4.077 0 0 0 42.785,1.255 L 35.125,8.914 34.42,8.2 a 4.023,4.023 0 0 0 -5.665,0 l -7.939,7.95 a 6.96,6.96 0 0 0 -2.03,5.483 l 0.421,5.54 a 0.972,0.972 0 0 1 -0.291,0.766 l -3.267,3.268 A 2.981,2.981 0 0 0 12,31.665 L 0.886,42.7 A 3.023,3.023 0 0 0 0,44.833 V 57 a 3,3 0 0 0 3,3 h 24.713 a 4.026,4.026 0 0 0 2.827,-1.173 l 3.66,-3.66 a 3,3 0 0 0 -0.058,-4.3 L 32.074,48.9 c 0.023,-0.074 0.05,-0.147 0.066,-0.224 l 1.43,-1.43 a 0.975,0.975 0 0 1 0.616,-0.291 l 4.883,-0.45 a 6.971,6.971 0 0 0 4.322,-2.019 L 58.745,29.142 A 4.09,4.09 0 0 0 59.017,23.521 3.907,3.907 0 0 0 58.008,22.73 Z M 20.33,29.357 A 2.959,2.959 0 0 0 21.2,27.015 L 20.78,21.48 a 4.962,4.962 0 0 1 1.451,-3.912 L 30.167,9.621 A 2.015,2.015 0 0 1 33,9.616 l 0.706,0.712 -6.359,6.362 a 1,1 0 1 0 1.414,1.41 l 7.06,-7.06 0.009,-0.006 8.37,-8.365 a 2.1,2.1 0 0 1 2.864,-0.194 1.992,1.992 0 0 1 0.082,2.9 v 0 L 37.088,15.435 A 1,1 0 1 0 38.5,16.849 L 48.56,6.79 v 0 l 2.119,-2.118 a 2,2 0 0 1 1.471,-0.585 1.972,1.972 0 0 1 1.428,0.667 2.107,2.107 0 0 1 -0.2,2.866 L 52.1,8.906 52.092,8.912 41.33,19.677 a 1,1 0 1 0 1.414,1.414 L 53.5,10.334 53.509,10.328 a 1.993,1.993 0 0 1 2.9,0.085 2.107,2.107 0 0 1 -0.2,2.861 l -4.085,4.085 v 0.006 l -8.639,8.64 a 1.0002026,1.0002026 0 1 0 1.415,1.414 l 8.644,-8.645 v 0 a 2.075,2.075 0 0 1 1.469,-0.583 1.971,1.971 0 0 1 1.428,0.666 2.121,2.121 0 0 1 -0.194,2.875 L 40.906,37.073 a 4.969,4.969 0 0 1 -3.085,1.441 l -4.894,0.45 a 2.989,2.989 0 0 0 -1.851,0.869 l -3,3 L 17.158,32.53 Z M 20.083,58 H 3 A 1,1 0 0 1 2,57 V 44.833 a 0.994,0.994 0 0 1 0.295,-0.71 L 9.6,36.87 23.316,49.729 a 1,1 0 0 0 1.368,-1.458 L 11.02,35.46 13.413,33.084 v 0 a 1,1 0 0 1 1.394,-0.02 l 0.205,0.194 v 0 0 L 29.9,47.314 a 1,1 0 0 1 0.021,1.434 l -8.959,8.959 A 1,1 0 0 1 20.255,58 Z m 13,-4.974 a 1,1 0 0 1 -0.3,0.727 l -3.66,3.66 A 2.013,2.013 0 0 1 27.713,58 H 23.5 l 7.43,-7.43 1.842,1.748 a 0.99,0.99 0 0 1 0.309,0.708 z m 24.25,-25.3 -15.356,15.347 a 4.98,4.98 0 0 1 -3.085,1.441 l -4.883,0.45 a 2.978,2.978 0 0 0 -1.853,0.869 l -0.485,0.485 a 3.012,3.012 0 0 0 -0.4,-0.458 l -1.746,-1.649 2.963,-2.964 a 1.011,1.011 0 0 1 0.615,-0.291 L 38,40.506 a 6.958,6.958 0 0 0 4.322,-2.019 L 56.549,24.259 a 1.969,1.969 0 0 1 0.976,0.595 2.12,2.12 0 0 1 -0.194,2.874 z"
           id="path1"
           style="fill:#000000;stroke:#000000;stroke-width:0.549472;stroke-dasharray:none" /></g><text
         xml:space="preserve"
         style="font-style:normal;font-variant:normal;font-weight:normal;font-stretch:normal;font-size:12.7px;line-height:11.807px;font-family:Helvetica;-inkscape-font-specification:Helvetica;letter-spacing:0px;fill:#ff7f2a;fill-opacity:0.981233;stroke:#ff7f2a;stroke-width:0.264583"
         x="142.31715"
         y="215.33083"
         id="text2-5-3-8"><tspan
           sodipodi:role="line"
           id="tspan1-8-3-4"
           style="font-style:normal;font-variant:normal;font-weight:normal;font-stretch:normal;font-size:12.7px;line-height:11.807px;font-family:Helvetica;-inkscape-font-specification:Helvetica;letter-spacing:0px;fill:#000000;stroke:#000000;stroke-width:0.264583"
           x="142.31715"
           y="215.33083">more</tspan></text><text
         xml:space="preserve"
         style="font-style:normal;font-variant:normal;font-weight:normal;font-stretch:normal;font-size:12.7px;line-height:11.807px;font-family:Helvetica;-inkscape-font-specification:Helvetica;letter-spacing:0px;fill:#ff7f2a;fill-opacity:0.981233;stroke:#ff7f2a;stroke-width:0.264583"
         x="135.4787"
         y="236.95044"
         id="text7-5-8-0"><tspan
           sodipodi:role="line"
           id="tspan7-1-9-5"
           style="font-style:normal;font-variant:normal;font-weight:normal;font-stretch:normal;font-size:12.7px;line-height:11.807px;font-family:Helvetica;-inkscape-font-specification:Helvetica;letter-spacing:0px;fill:#000000;stroke:#000000;stroke-width:0.264583"
           x="135.4787"
           y="236.95044">please</tspan></text><text
         xml:space="preserve"
         style="font-style:normal;font-variant:normal;font-weight:normal;font-stretch:normal;font-size:12.7px;line-height:11.807px;font-family:Helvetica;-inkscape-font-specification:Helvetica;letter-spacing:0px;fill:#ff7f2a;fill-opacity:0.981233;stroke:#ff7f2a;stroke-width:0.264583"
         x="143.47729"
         y="226.88474"
         id="text6-6-8-9"><tspan
           sodipodi:role="line"
           id="tspan6-2-5-3"
           style="font-style:normal;font-variant:normal;font-weight:normal;font-stretch:normal;font-size:12.7px;line-height:11.807px;font-family:Helvetica;-inkscape-font-specification:Helvetica;letter-spacing:0px;stroke-width:0.264583"
           x="143.47729"
           y="226.88474">SQL</tspan></text></g></g></svg>
