<?xml version="1.0" encoding="UTF-8" standalone="no"?>
<!-- Created with Inkscape (http://www.inkscape.org/) -->

<svg
   width="61.026249mm"
   height="31.737761mm"
   viewBox="0 0 61.026249 31.737761"
   version="1.1"
   id="svg1"
   inkscape:version="1.3 (0e150ed, 2023-07-21)"
   sodipodi:docname="moresqlplease logos.svg"
   xml:space="preserve"
   xmlns:inkscape="http://www.inkscape.org/namespaces/inkscape"
   xmlns:sodipodi="http://sodipodi.sourceforge.net/DTD/sodipodi-0.dtd"
   xmlns="http://www.w3.org/2000/svg"
   xmlns:svg="http://www.w3.org/2000/svg"><sodipodi:namedview
     id="namedview1"
     pagecolor="#ffffff"
     bordercolor="#000000"
     borderopacity="0.25"
     inkscape:showpageshadow="2"
     inkscape:pageopacity="0.0"
     inkscape:pagecheckerboard="0"
     inkscape:deskcolor="#d1d1d1"
     inkscape:document-units="mm"
     inkscape:zoom="1.6573315"
     inkscape:cx="567.78021"
     inkscape:cy="962.08878"
     inkscape:window-width="1472"
     inkscape:window-height="828"
     inkscape:window-x="0"
     inkscape:window-y="37"
     inkscape:window-maximized="1"
     inkscape:current-layer="layer1" /><defs
     id="defs1" /><g
     inkscape:label="Layer 1"
     inkscape:groupmode="layer"
     id="layer1"
     transform="translate(-105.79003,-263.56429)"><g
       id="g1"
       inkscape:export-filename="g1.svg"
       inkscape:export-xdpi="96"
       inkscape:export-ydpi="96"><g
         id="g2"><g
           id="g7-7-7"
           transform="matrix(0.48228107,0,0,0.48228107,105.99002,263.82532)"
           style="fill:#000000;stroke:#000000;stroke-width:0.829392;stroke-dasharray:none;stroke-opacity:1"><path
             d="M 58.008,22.73 A 4.049,4.049 0 0 0 57.935,17.52 3.957,3.957 0 0 0 56,16.322 l 1.634,-1.634 A 4.073,4.073 0 0 0 57.9,9.072 3.961,3.961 0 0 0 55.653,7.81 4.047,4.047 0 0 0 55.069,3.416 3.951,3.951 0 0 0 52.209,2.085 4,4 0 0 0 49.604,2.954 3.961,3.961 0 0 0 48.404,0.991 4.077,4.077 0 0 0 42.785,1.255 L 35.125,8.914 34.42,8.2 a 4.023,4.023 0 0 0 -5.665,0 l -7.939,7.95 a 6.96,6.96 0 0 0 -2.03,5.483 l 0.421,5.54 a 0.972,0.972 0 0 1 -0.291,0.766 l -3.267,3.268 A 2.981,2.981 0 0 0 12,31.665 L 0.886,42.7 A 3.023,3.023 0 0 0 0,44.833 V 57 a 3,3 0 0 0 3,3 h 24.713 a 4.026,4.026 0 0 0 2.827,-1.173 l 3.66,-3.66 a 3,3 0 0 0 -0.058,-4.3 L 32.074,48.9 c 0.023,-0.074 0.05,-0.147 0.066,-0.224 l 1.43,-1.43 a 0.975,0.975 0 0 1 0.616,-0.291 l 4.883,-0.45 a 6.971,6.971 0 0 0 4.322,-2.019 L 58.745,29.142 A 4.09,4.09 0 0 0 59.017,23.521 3.907,3.907 0 0 0 58.008,22.73 Z M 20.33,29.357 A 2.959,2.959 0 0 0 21.2,27.015 L 20.78,21.48 a 4.962,4.962 0 0 1 1.451,-3.912 L 30.167,9.621 A 2.015,2.015 0 0 1 33,9.616 l 0.706,0.712 -6.359,6.362 a 1,1 0 1 0 1.414,1.41 l 7.06,-7.06 0.009,-0.006 8.37,-8.365 a 2.1,2.1 0 0 1 2.864,-0.194 1.992,1.992 0 0 1 0.082,2.9 v 0 L 37.088,15.435 A 1,1 0 1 0 38.5,16.849 L 48.56,6.79 v 0 l 2.119,-2.118 a 2,2 0 0 1 1.471,-0.585 1.972,1.972 0 0 1 1.428,0.667 2.107,2.107 0 0 1 -0.2,2.866 L 52.1,8.906 52.092,8.912 41.33,19.677 a 1,1 0 1 0 1.414,1.414 L 53.5,10.334 53.509,10.328 a 1.993,1.993 0 0 1 2.9,0.085 2.107,2.107 0 0 1 -0.2,2.861 l -4.085,4.085 v 0.006 l -8.639,8.64 a 1.0002026,1.0002026 0 1 0 1.415,1.414 l 8.644,-8.645 v 0 a 2.075,2.075 0 0 1 1.469,-0.583 1.971,1.971 0 0 1 1.428,0.666 2.121,2.121 0 0 1 -0.194,2.875 L 40.906,37.073 a 4.969,4.969 0 0 1 -3.085,1.441 l -4.894,0.45 a 2.989,2.989 0 0 0 -1.851,0.869 l -3,3 L 17.158,32.53 Z M 20.083,58 H 3 A 1,1 0 0 1 2,57 V 44.833 a 0.994,0.994 0 0 1 0.295,-0.71 L 9.6,36.87 23.316,49.729 a 1,1 0 0 0 1.368,-1.458 L 11.02,35.46 13.413,33.084 v 0 a 1,1 0 0 1 1.394,-0.02 l 0.205,0.194 v 0 0 L 29.9,47.314 a 1,1 0 0 1 0.021,1.434 l -8.959,8.959 A 1,1 0 0 1 20.255,58 Z m 13,-4.974 a 1,1 0 0 1 -0.3,0.727 l -3.66,3.66 A 2.013,2.013 0 0 1 27.713,58 H 23.5 l 7.43,-7.43 1.842,1.748 a 0.99,0.99 0 0 1 0.309,0.708 z m 24.25,-25.3 -15.356,15.347 a 4.98,4.98 0 0 1 -3.085,1.441 l -4.883,0.45 a 2.978,2.978 0 0 0 -1.853,0.869 l -0.485,0.485 a 3.012,3.012 0 0 0 -0.4,-0.458 l -1.746,-1.649 2.963,-2.964 a 1.011,1.011 0 0 1 0.615,-0.291 L 38,40.506 a 6.958,6.958 0 0 0 4.322,-2.019 L 56.549,24.259 a 1.969,1.969 0 0 1 0.976,0.595 2.12,2.12 0 0 1 -0.194,2.874 z"
             id="path1-6-3"
             style="fill:#000000;stroke:#000000;stroke-width:0.829392;stroke-dasharray:none;stroke-opacity:1" /></g><path
           style="font-size:12.7px;line-height:11.807px;font-family:'Space Grotesk';-inkscape-font-specification:'Space Grotesk';letter-spacing:-0.605896px;fill-opacity:0.981233;stroke:#000000;stroke-width:0.264583"
           d="m 137.75648,270.08469 v -6.2103 h 0.9779 v 0.7747 h 0.1778 q 0.1778,-0.3302 0.5842,-0.6096 0.4064,-0.2794 1.143,-0.2794 0.7239,0 1.1684,0.3175 0.4572,0.3175 0.6604,0.7747 h 0.1778 q 0.2159,-0.4572 0.6477,-0.7747 0.4445,-0.3175 1.2319,-0.3175 0.6223,0 1.0922,0.254 0.4699,0.254 0.7366,0.7366 0.2794,0.4699 0.2794,1.1303 v 4.2037 h -1.0033 v -4.1148 q 0,-0.6223 -0.3683,-0.9779 -0.3556,-0.3683 -1.0033,-0.3683 -0.6858,0 -1.1303,0.4445 -0.4318,0.4445 -0.4318,1.2827 v 3.7338 h -1.0033 v -4.1148 q 0,-0.6223 -0.3683,-0.9779 -0.3556,-0.3683 -1.0033,-0.3683 -0.6858,0 -1.1303,0.4445 -0.4318,0.4445 -0.4318,1.2827 v 3.7338 z m 13.18628,0.1778 q -0.9398,0 -1.66369,-0.3937 -0.7112,-0.3937 -1.1176,-1.1049 -0.3937,-0.7239 -0.3937,-1.7018 v -0.1651 q 0,-0.9652 0.3937,-1.6891 0.4064,-0.7239 1.1176,-1.1176 0.72389,-0.3937 1.66369,-0.3937 0.9398,0 1.651,0.3937 0.7239,0.3937 1.1176,1.1176 0.4064,0.7239 0.4064,1.6891 v 0.1651 q 0,0.9779 -0.4064,1.7018 -0.3937,0.7112 -1.1176,1.1049 -0.7112,0.3937 -1.651,0.3937 z m 0,-0.9017 q 0.9906,0 1.5748,-0.6223 0.5969,-0.635 0.5969,-1.7018 v -0.1143 q 0,-1.0668 -0.5969,-1.6891 -0.5842,-0.635 -1.5748,-0.635 -0.9779,0 -1.57479,0.635 -0.5969,0.6223 -0.5969,1.6891 v 0.1143 q 0,1.0668 0.5969,1.7018 0.59689,0.6223 1.57479,0.6223 z m 4.37248,0.7239 v -6.2103 h 0.9779 v 0.762 h 0.1778 q 0.1651,-0.4064 0.508,-0.5969 0.3429,-0.1905 0.9017,-0.1905 h 0.7366 v 0.9144 h -0.8001 q -0.6731,0 -1.0922,0.381 -0.4064,0.3683 -0.4064,1.1557 v 3.7846 z m 6.79818,0.1778 q -0.9398,0 -1.651,-0.3937 -0.7112,-0.4064 -1.1049,-1.1303 -0.3937,-0.7239 -0.3937,-1.6764 v -0.1524 q 0,-0.9652 0.3937,-1.6891 0.3937,-0.7239 1.0922,-1.1176 0.6985,-0.4064 1.6002,-0.4064 0.8763,0 1.5494,0.381 0.6731,0.3683 1.0541,1.0668 0.381,0.6985 0.381,1.6383 v 0.4572 h -5.0673 q 0.0381,1.0033 0.6477,1.5748 0.6096,0.5588 1.524,0.5588 0.8001,0 1.2319,-0.3683 0.4318,-0.3683 0.6604,-0.8763 l 0.8636,0.4191 q -0.1905,0.3937 -0.5334,0.7874 -0.3302,0.3937 -0.8763,0.6604 -0.5334,0.2667 -1.3716,0.2667 z m -2.1336,-3.8481 h 4.0386 q -0.0508,-0.8636 -0.5969,-1.3462 -0.5334,-0.4826 -1.3716,-0.4826 -0.8509,0 -1.397,0.4826 -0.5461,0.4826 -0.6731,1.3462 z"
           id="text2-5-3-8-5-2"
           aria-label="more" /><path
           style="font-size:12.7px;line-height:11.807px;font-family:'Space Grotesk';-inkscape-font-specification:'Space Grotesk';letter-spacing:-0.605896px;fill-opacity:0.981233;stroke:#000000;stroke-width:0.264583"
           d="m 131.19445,295.16979 v -8.7503 h 0.9779 v 1.0287 h 0.1778 q 0.2413,-0.4699 0.7747,-0.8382 0.5461,-0.3683 1.5113,-0.3683 0.8001,0 1.4605,0.3937 0.6731,0.381 1.0668,1.0922 0.4064,0.7112 0.4064,1.7145 v 0.1651 q 0,0.9906 -0.3937,1.7145 -0.3937,0.7239 -1.0668,1.1049 -0.6604,0.381 -1.4732,0.381 -0.6477,0 -1.1049,-0.1778 -0.4445,-0.1651 -0.7239,-0.4318 -0.2794,-0.2667 -0.4318,-0.5461 h -0.1778 v 3.5179 z m 3.175,-3.2512 q 0.9652,0 1.5621,-0.6096 0.6096,-0.6223 0.6096,-1.7272 v -0.1143 q 0,-1.1049 -0.6096,-1.7145 -0.5969,-0.6223 -1.5621,-0.6223 -0.9525,0 -1.5748,0.6223 -0.6096,0.6096 -0.6096,1.7145 v 0.1143 q 0,1.1049 0.6096,1.7272 0.6223,0.6096 1.5748,0.6096 z m 4.39789,0.7112 v -8.89 h 1.0033 v 8.89 z m 5.35039,0.1778 q -0.9398,0 -1.651,-0.3937 -0.7112,-0.4064 -1.1049,-1.1303 -0.3937,-0.7239 -0.3937,-1.6764 v -0.1524 q 0,-0.9652 0.3937,-1.6891 0.3937,-0.7239 1.0922,-1.1176 0.6985,-0.4064 1.6002,-0.4064 0.8763,0 1.5494,0.381 0.6731,0.3683 1.0541,1.0668 0.381,0.6985 0.381,1.6383 v 0.4572 h -5.0673 q 0.0381,1.0033 0.6477,1.5748 0.6096,0.5588 1.524,0.5588 0.8001,0 1.2319,-0.3683 0.4318,-0.3683 0.6604,-0.8763 l 0.8636,0.4191 q -0.1905,0.3937 -0.5334,0.7874 -0.3302,0.3937 -0.8763,0.6604 -0.5334,0.2667 -1.3716,0.2667 z m -2.1336,-3.8481 h 4.0386 q -0.0508,-0.8636 -0.5969,-1.3462 -0.5334,-0.4826 -1.3716,-0.4826 -0.8509,0 -1.397,0.4826 -0.5461,0.4826 -0.6731,1.3462 z m 8.10629,3.8481 q -0.6477,0 -1.1811,-0.2286 -0.5334,-0.2286 -0.8382,-0.6604 -0.3048,-0.4318 -0.3048,-1.0541 0,-0.635 0.3048,-1.0414 0.3048,-0.4191 0.8382,-0.6223 0.5334,-0.2159 1.1938,-0.2159 h 2.0955 v -0.4572 q 0,-0.6604 -0.3937,-1.0414 -0.381,-0.381 -1.143,-0.381 -0.7493,0 -1.1684,0.3683 -0.4191,0.3556 -0.5715,0.9652 l -0.9398,-0.3048 q 0.1524,-0.5207 0.4826,-0.9398 0.3302,-0.4318 0.8763,-0.6858 0.5588,-0.2667 1.3335,-0.2667 1.1938,0 1.8542,0.6223 0.6604,0.6096 0.6604,1.7272 v 2.8067 q 0,0.381 0.3556,0.381 h 0.5715 v 0.8509 h -0.8763 q -0.4191,0 -0.6731,-0.2286 -0.254,-0.2413 -0.254,-0.635 v -0.0635 h -0.1524 q -0.1397,0.2413 -0.381,0.508 -0.2286,0.254 -0.635,0.4191 -0.4064,0.1778 -1.0541,0.1778 z m 0.1143,-0.8636 q 0.889,0 1.4351,-0.5207 0.5588,-0.5334 0.5588,-1.4859 v -0.1397 h -2.0574 q -0.5969,0 -0.9906,0.2667 -0.381,0.254 -0.381,0.7747 0,0.5207 0.3937,0.8128 0.4064,0.2921 1.0414,0.2921 z m 7.12837,0.8636 q -1.1557,0 -1.9558,-0.5334 -0.7874,-0.5334 -0.9525,-1.6891 l 0.9525,-0.2159 q 0.1016,0.6096 0.381,0.9652 0.2794,0.3429 0.6858,0.4953 0.4191,0.1397 0.889,0.1397 0.6985,0 1.1049,-0.2794 0.4064,-0.2794 0.4064,-0.7493 0,-0.4826 -0.3937,-0.6731 -0.381,-0.2032 -1.0541,-0.3302 l -0.5207,-0.0889 q -0.5969,-0.1016 -1.0922,-0.3175 -0.4953,-0.2159 -0.7874,-0.5842 -0.2921,-0.3683 -0.2921,-0.9271 0,-0.8382 0.6477,-1.3081 0.6477,-0.4699 1.7145,-0.4699 1.0541,0 1.7018,0.4826 0.6604,0.4699 0.8509,1.3335 l -0.9398,0.2413 q -0.1143,-0.6731 -0.5461,-0.9398 -0.4318,-0.2794 -1.0668,-0.2794 -0.635,0 -1.0033,0.2413 -0.3683,0.2286 -0.3683,0.6858 0,0.4445 0.3429,0.6604 0.3556,0.2032 0.9398,0.3048 l 0.5207,0.0889 q 0.6604,0.1143 1.1811,0.3175 0.5334,0.1905 0.8382,0.5588 0.3175,0.3683 0.3175,0.9652 0,0.9144 -0.6858,1.4097 -0.6731,0.4953 -1.8161,0.4953 z m 6.42989,0 q -0.9398,0 -1.651,-0.3937 -0.7112,-0.4064 -1.1049,-1.1303 -0.3937,-0.7239 -0.3937,-1.6764 v -0.1524 q 0,-0.9652 0.3937,-1.6891 0.3937,-0.7239 1.0922,-1.1176 0.6985,-0.4064 1.6002,-0.4064 0.8763,0 1.5494,0.381 0.6731,0.3683 1.0541,1.0668 0.381,0.6985 0.381,1.6383 v 0.4572 h -5.0673 q 0.0381,1.0033 0.6477,1.5748 0.6096,0.5588 1.524,0.5588 0.8001,0 1.2319,-0.3683 0.4318,-0.3683 0.6604,-0.8763 l 0.8636,0.4191 q -0.1905,0.3937 -0.5334,0.7874 -0.3302,0.3937 -0.8763,0.6604 -0.5334,0.2667 -1.3716,0.2667 z m -2.1336,-3.8481 h 4.0386 q -0.0508,-0.8636 -0.5969,-1.3462 -0.5334,-0.4826 -1.3716,-0.4826 -0.8509,0 -1.397,0.4826 -0.5461,0.4826 -0.6731,1.3462 z"
           id="text7-5-8-0-4-6"
           aria-label="please" /><path
           d="m 142.1641,281.97333 q -0.9652,0 -1.7272,-0.3429 -0.762,-0.3429 -1.2065,-1.0287 -0.4318,-0.6985 -0.4318,-1.7399 v -0.2667 h 1.0541 v 0.2667 q 0,1.1049 0.6477,1.651 0.6477,0.5334 1.6637,0.5334 1.0414,0 1.5875,-0.4699 0.5461,-0.4699 0.5461,-1.1811 0,-0.4953 -0.254,-0.7874 -0.2413,-0.2921 -0.6858,-0.4699 -0.4445,-0.1905 -1.0414,-0.3302 l -0.6604,-0.1651 q -0.7747,-0.2032 -1.3716,-0.4953 -0.5969,-0.2921 -0.9398,-0.762 -0.3302,-0.4826 -0.3302,-1.2319 0,-0.7493 0.3683,-1.2954 0.381,-0.5461 1.0541,-0.8382 0.6858,-0.2921 1.5748,-0.2921 0.9017,0 1.6129,0.3175 0.7239,0.3048 1.1303,0.9144 0.4191,0.5969 0.4191,1.5113 v 0.5334 h -1.0541 v -0.5334 q 0,-0.6477 -0.2794,-1.0414 -0.2667,-0.3937 -0.7493,-0.5842 -0.4699,-0.1905 -1.0795,-0.1905 -0.8763,0 -1.4097,0.3937 -0.5334,0.381 -0.5334,1.0922 0,0.4699 0.2286,0.762 0.2286,0.2921 0.6477,0.4826 0.4191,0.1778 1.0033,0.3175 l 0.6604,0.1651 q 0.7747,0.1651 1.3843,0.4572 0.6223,0.2794 0.9906,0.7747 0.3683,0.4826 0.3683,1.27 0,0.7874 -0.3937,1.3716 -0.3937,0.5842 -1.1176,0.9144 -0.7112,0.3175 -1.6764,0.3175 z m 7.44589,0 q -1.5875,0 -2.54,-0.9144 -0.9398,-0.9271 -0.9398,-2.6924 v -2.032 q 0,-1.7653 0.9398,-2.6797 0.9525,-0.9271 2.54,-0.9271 1.6002,0 2.54,0.9271 0.9525,0.9144 0.9525,2.6797 v 2.032 q 0,1.7653 -0.9525,2.6924 -0.9398,0.9144 -2.54,0.9144 z m 0,-0.9525 q 1.1557,0 1.7907,-0.6858 0.635,-0.6985 0.635,-1.9304 v -2.1082 q 0,-1.2319 -0.635,-1.9177 -0.635,-0.6985 -1.7907,-0.6985 -1.143,0 -1.778,0.6985 -0.635,0.6858 -0.635,1.9177 v 2.1082 q 0,1.2319 0.635,1.9304 0.635,0.6858 1.778,0.6858 z m 0.5207,2.8321 q -0.4699,0 -0.762,-0.2921 -0.2794,-0.2794 -0.2794,-0.7747 v -0.9906 h 1.0414 v 0.8001 q 0,0.381 0.3556,0.381 h 0.8382 v 0.8763 z m 4.14388,-2.0574 v -8.89 h 1.0668 v 7.9248 h 4.4958 v 0.9652 z"
           id="text6-6-8-9-1-4"
           style="font-size:12.7px;line-height:11.807px;font-family:'Space Grotesk';-inkscape-font-specification:'Space Grotesk';letter-spacing:-0.605896px;fill:#ff9955;fill-opacity:0.981233;stroke:#ff9955;stroke-width:0.264583"
           aria-label="SQL" /></g></g></g></svg>
