<?xml version="1.0" encoding="UTF-8" standalone="no"?>
<!-- Created with Inkscape (http://www.inkscape.org/) -->

<svg
   width="546.28607"
   height="81.0065"
   viewBox="0 0 144.53819 21.43297"
   version="1.1"
   id="svg1"
   inkscape:version="1.3 (0e150ed, 2023-07-21)"
   sodipodi:docname="moresqlplease logos.svg"
   xml:space="preserve"
   xmlns:inkscape="http://www.inkscape.org/namespaces/inkscape"
   xmlns:sodipodi="http://sodipodi.sourceforge.net/DTD/sodipodi-0.dtd"
   xmlns="http://www.w3.org/2000/svg"
   xmlns:svg="http://www.w3.org/2000/svg"><style
     id="style8"></style><sodipodi:namedview
     id="namedview1"
     pagecolor="#ffffff"
     bordercolor="#000000"
     borderopacity="0.25"
     inkscape:showpageshadow="2"
     inkscape:pageopacity="0.0"
     inkscape:pagecheckerboard="0"
     inkscape:deskcolor="#d1d1d1"
     inkscape:document-units="mm"
     inkscape:zoom="0.83484982"
     inkscape:cx="936.0965"
     inkscape:cy="149.12862"
     inkscape:window-width="1472"
     inkscape:window-height="828"
     inkscape:window-x="0"
     inkscape:window-y="37"
     inkscape:window-maximized="1"
     inkscape:current-layer="g1" /><defs
     id="defs1" /><g
     inkscape:label="Layer 1"
     inkscape:groupmode="layer"
     id="layer1"
     transform="translate(-179.98393,-39.505939)"><g
       id="g1"
       inkscape:export-filename="g1.svg"
       inkscape:export-xdpi="96"
       inkscape:export-ydpi="96"
       transform="translate(68.61524,9.0014339)"><g
         id="text8-8"
         style="font-size:14.1111px;line-height:13.118px;font-family:'DM Mono';-inkscape-font-specification:'DM Mono';text-decoration-line:underline;letter-spacing:-0.605896px;stroke:#000000;stroke-width:0.4"
         aria-label="more sql please"><g
           id="g13"><g
             id="g7-7-1-5-4-5-3-1"
             transform="matrix(0.35068261,0,0,0.35068261,111.56419,30.701018)"
             style="fill:#000000;stroke:#000000;stroke-width:1.11497;stroke-dasharray:none;stroke-opacity:1"><path
               d="M 58.008,22.73 A 4.049,4.049 0 0 0 57.935,17.52 3.957,3.957 0 0 0 56,16.322 l 1.634,-1.634 A 4.073,4.073 0 0 0 57.9,9.072 3.961,3.961 0 0 0 55.653,7.81 4.047,4.047 0 0 0 55.069,3.416 3.951,3.951 0 0 0 52.209,2.085 4,4 0 0 0 49.604,2.954 3.961,3.961 0 0 0 48.404,0.991 4.077,4.077 0 0 0 42.785,1.255 L 35.125,8.914 34.42,8.2 a 4.023,4.023 0 0 0 -5.665,0 l -7.939,7.95 a 6.96,6.96 0 0 0 -2.03,5.483 l 0.421,5.54 a 0.972,0.972 0 0 1 -0.291,0.766 l -3.267,3.268 A 2.981,2.981 0 0 0 12,31.665 L 0.886,42.7 A 3.023,3.023 0 0 0 0,44.833 V 57 a 3,3 0 0 0 3,3 h 24.713 a 4.026,4.026 0 0 0 2.827,-1.173 l 3.66,-3.66 a 3,3 0 0 0 -0.058,-4.3 L 32.074,48.9 c 0.023,-0.074 0.05,-0.147 0.066,-0.224 l 1.43,-1.43 a 0.975,0.975 0 0 1 0.616,-0.291 l 4.883,-0.45 a 6.971,6.971 0 0 0 4.322,-2.019 L 58.745,29.142 A 4.09,4.09 0 0 0 59.017,23.521 3.907,3.907 0 0 0 58.008,22.73 Z M 20.33,29.357 A 2.959,2.959 0 0 0 21.2,27.015 L 20.78,21.48 a 4.962,4.962 0 0 1 1.451,-3.912 L 30.167,9.621 A 2.015,2.015 0 0 1 33,9.616 l 0.706,0.712 -6.359,6.362 a 1,1 0 1 0 1.414,1.41 l 7.06,-7.06 0.009,-0.006 8.37,-8.365 a 2.1,2.1 0 0 1 2.864,-0.194 1.992,1.992 0 0 1 0.082,2.9 v 0 L 37.088,15.435 A 1,1 0 1 0 38.5,16.849 L 48.56,6.79 v 0 l 2.119,-2.118 a 2,2 0 0 1 1.471,-0.585 1.972,1.972 0 0 1 1.428,0.667 2.107,2.107 0 0 1 -0.2,2.866 L 52.1,8.906 52.092,8.912 41.33,19.677 a 1,1 0 1 0 1.414,1.414 L 53.5,10.334 53.509,10.328 a 1.993,1.993 0 0 1 2.9,0.085 2.107,2.107 0 0 1 -0.2,2.861 l -4.085,4.085 v 0.006 l -8.639,8.64 a 1.0002026,1.0002026 0 1 0 1.415,1.414 l 8.644,-8.645 v 0 a 2.075,2.075 0 0 1 1.469,-0.583 1.971,1.971 0 0 1 1.428,0.666 2.121,2.121 0 0 1 -0.194,2.875 L 40.906,37.073 a 4.969,4.969 0 0 1 -3.085,1.441 l -4.894,0.45 a 2.989,2.989 0 0 0 -1.851,0.869 l -3,3 L 17.158,32.53 Z M 20.083,58 H 3 A 1,1 0 0 1 2,57 V 44.833 a 0.994,0.994 0 0 1 0.295,-0.71 L 9.6,36.87 23.316,49.729 a 1,1 0 0 0 1.368,-1.458 L 11.02,35.46 13.413,33.084 v 0 a 1,1 0 0 1 1.394,-0.02 l 0.205,0.194 v 0 0 L 29.9,47.314 a 1,1 0 0 1 0.021,1.434 l -8.959,8.959 A 1,1 0 0 1 20.255,58 Z m 13,-4.974 a 1,1 0 0 1 -0.3,0.727 l -3.66,3.66 A 2.013,2.013 0 0 1 27.713,58 H 23.5 l 7.43,-7.43 1.842,1.748 a 0.99,0.99 0 0 1 0.309,0.708 z m 24.25,-25.3 -15.356,15.347 a 4.98,4.98 0 0 1 -3.085,1.441 l -4.883,0.45 a 2.978,2.978 0 0 0 -1.853,0.869 l -0.485,0.485 a 3.012,3.012 0 0 0 -0.4,-0.458 l -1.746,-1.649 2.963,-2.964 a 1.011,1.011 0 0 1 0.615,-0.291 L 38,40.506 a 6.958,6.958 0 0 0 4.322,-2.019 L 56.549,24.259 a 1.969,1.969 0 0 1 0.976,0.595 2.12,2.12 0 0 1 -0.194,2.874 z"
               id="path1-6-0-2-5-5-0-4"
               style="fill:#000000;stroke:#000000;stroke-width:1.11497;stroke-dasharray:none;stroke-opacity:1" /></g><rect
             style="font-size:14.1111px;line-height:13.118px;font-family:'DM Mono';-inkscape-font-specification:'DM Mono';text-decoration-line:underline;letter-spacing:-0.605896px;fill:#000000;fill-opacity:1;stroke:#000000;stroke-width:0;stroke-dasharray:none;stroke-opacity:1"
             id="rect13"
             width="117.47774"
             height="1.2654195"
             x="138.42912"
             y="47.827644"
             ry="0"
             inkscape:label="rect13" /><path
             d="m 138.62912,46.466293 v -6.999105 h 0.97367 l 0.127,0.818443 h 0.0705 q 0.18345,-0.423333 0.55033,-0.705555 0.381,-0.282222 0.91723,-0.282222 0.53622,0 0.90311,0.268111 0.381,0.254 0.55033,0.719666 h 0.0564 q 0.18345,-0.423333 0.59267,-0.705555 0.40922,-0.282222 0.98778,-0.282222 0.80433,0 1.19944,0.550333 0.40922,0.536222 0.40922,1.439333 v 5.178773 h -1.15711 v -4.995329 q 0,-0.508 -0.21166,-0.804333 -0.19756,-0.296333 -0.64911,-0.296333 -0.46567,0 -0.762,0.352778 -0.29634,0.352777 -0.29634,1.001888 v 4.741329 h -1.17122 v -4.995329 q 0,-0.508 -0.19755,-0.804333 -0.19756,-0.296333 -0.64911,-0.296333 -0.46567,0 -0.77611,0.352778 -0.29634,0.352777 -0.29634,1.001888 v 4.741329 z m 11.57196,0.169334 q -0.98777,0 -1.74977,-0.451556 -0.762,-0.451555 -1.19945,-1.269999 -0.43744,-0.832555 -0.43744,-1.947332 0,-1.114776 0.43744,-1.93322 0.43745,-0.832555 1.19945,-1.28411 0.762,-0.451556 1.74977,-0.451556 0.98778,0 1.74978,0.451556 0.762,0.451555 1.19944,1.28411 0.43745,0.818444 0.43745,1.93322 0,1.114777 -0.43745,1.947332 -0.43744,0.818444 -1.19944,1.269999 -0.762,0.451556 -1.74978,0.451556 z m 0,-1.128888 q 0.60678,0 1.10067,-0.268111 0.49389,-0.268111 0.77611,-0.832555 0.29633,-0.564444 0.29633,-1.439333 0,-0.874888 -0.29633,-1.439332 -0.28222,-0.564444 -0.77611,-0.832555 -0.49389,-0.268111 -1.10067,-0.268111 -0.59266,0 -1.08655,0.268111 -0.49389,0.268111 -0.79022,0.832555 -0.29634,0.564444 -0.29634,1.439332 0,1.312333 0.635,1.933221 0.635,0.606778 1.53811,0.606778 z m 4.81275,0.959554 v -1.015999 h 1.79211 v -4.61433 q 0,-0.352777 -0.33867,-0.352777 h -1.27 v -1.015999 h 1.70744 q 0.46567,0 0.74789,0.253999 0.28223,0.254 0.28223,0.747889 v 0.296333 h 0.0564 q 0.16933,-0.705555 0.635,-1.086555 0.47978,-0.381 1.32644,-0.381 h 1.28411 v 1.255888 h -1.45344 q -0.86078,0 -1.32644,0.578555 -0.46567,0.564444 -0.46567,1.453444 v 2.864553 h 2.20133 v 1.015999 z m 10.97929,0.169334 q -0.98777,0 -1.74977,-0.451556 -0.74789,-0.465666 -1.18534,-1.28411 -0.43744,-0.832555 -0.43744,-1.933221 0,-1.100665 0.42333,-1.919109 0.43745,-0.832555 1.19945,-1.28411 0.762,-0.465667 1.778,-0.465667 1.01599,0 1.73566,0.465667 0.71967,0.451555 1.10067,1.199443 0.381,0.747889 0.381,1.608666 0,0.155222 -0.0141,0.310444 0,0.155222 0,0.352777 h -5.43278 q 0.0423,0.776111 0.35278,1.298222 0.32455,0.507999 0.80433,0.761999 0.49389,0.254 1.04422,0.254 0.77611,0 1.21356,-0.324555 0.43744,-0.324556 0.66322,-0.903111 h 1.17122 q -0.23989,0.973666 -1.00189,1.650999 -0.762,0.663222 -2.04611,0.663222 z m 0,-6.27944 q -0.81844,0 -1.43933,0.493888 -0.60678,0.493889 -0.74789,1.382888 h 4.26155 q -0.0564,-0.874888 -0.63499,-1.368776 -0.56445,-0.508 -1.43934,-0.508 z"
             id="path11" /><path
             style="fill:#ff00ff;stroke:#ff00ff"
             d="m 181.71461,46.635627 q -1.34056,0 -2.17311,-0.620889 -0.81845,-0.634999 -0.91722,-1.735665 h 1.22766 q 0.0847,0.578555 0.56445,0.945444 0.49388,0.366888 1.32644,0.366888 0.79022,0 1.17122,-0.338666 0.39511,-0.338667 0.39511,-0.776111 0,-0.592666 -0.46567,-0.804333 -0.46566,-0.225777 -1.39699,-0.338666 -1.11478,-0.127 -1.84856,-0.606777 -0.73378,-0.479778 -0.73378,-1.439332 0,-0.860778 0.71967,-1.425222 0.71967,-0.564444 1.96144,-0.564444 1.22767,0 1.93322,0.564444 0.70556,0.550333 0.80434,1.580444 h -1.17122 q -0.0423,-0.508 -0.49389,-0.804333 -0.43745,-0.310444 -1.10067,-0.310444 -0.69144,0 -1.07244,0.268111 -0.381,0.253999 -0.381,0.677332 0,0.423333 0.42333,0.705555 0.43744,0.268111 1.36878,0.352778 0.73377,0.08467 1.34055,0.282222 0.60678,0.197555 0.95956,0.620888 0.36689,0.423333 0.36689,1.185333 0.0141,0.634999 -0.35278,1.142999 -0.35278,0.493888 -0.98778,0.790222 -0.635,0.282222 -1.46755,0.282222 z m 9.77985,2.935108 v -4.148663 q -0.26811,0.508 -0.79022,0.860777 -0.508,0.352778 -1.38289,0.352778 -0.889,0 -1.59455,-0.423333 -0.69145,-0.423333 -1.10067,-1.241777 -0.39511,-0.818444 -0.39511,-1.989665 0,-1.185333 0.39511,-2.003777 0.40922,-0.832555 1.08656,-1.255888 0.69144,-0.423333 1.53811,-0.423333 0.83255,0 1.39699,0.352778 0.56445,0.352777 0.84667,0.888999 h 0.0847 l 0.14111,-1.072443 h 0.95955 v 10.103547 z m -2.01789,-4.063996 q 0.889,0 1.46756,-0.620889 0.57855,-0.634999 0.57855,-1.91911 0,-1.28411 -0.57855,-1.904998 -0.57856,-0.635 -1.46756,-0.635 -0.889,0 -1.46755,0.635 -0.57856,0.620888 -0.57856,1.904998 0,1.284111 0.57856,1.91911 0.57855,0.620889 1.46755,0.620889 z m 4.71397,0.959554 v -1.015999 h 2.38478 v -7.775216 q 0,-0.352778 -0.35278,-0.352778 h -1.778 v -1.015999 h 2.06022 q 0.60678,0 0.93134,0.324555 0.32455,0.324556 0.32455,0.931333 v 7.888105 h 2.38478 v 1.015999 z"
             id="path12" /><path
             d="M 209.95436,49.570735 V 39.467188 h 0.95955 l 0.14111,1.15711 h 0.0847 q 0.26811,-0.564444 0.86078,-0.945444 0.59266,-0.381 1.397,-0.381 0.84666,0 1.52399,0.423333 0.69145,0.423333 1.08656,1.255888 0.39511,0.818444 0.39511,2.003777 0,1.171221 -0.40922,1.989665 -0.39511,0.818444 -1.10067,1.241777 -0.69144,0.423333 -1.59455,0.423333 -0.80434,0 -1.36878,-0.338667 -0.55033,-0.352777 -0.79022,-0.818444 v 4.092219 z m 3.20322,-4.063996 q 0.889,0 1.46755,-0.620889 0.57856,-0.634999 0.57856,-1.91911 0,-1.28411 -0.57856,-1.904998 -0.57855,-0.635 -1.46755,-0.635 -0.889,0 -1.46756,0.635 -0.57855,0.620888 -0.57855,1.904998 0,1.284111 0.57855,1.91911 0.57856,0.620889 1.46756,0.620889 z m 4.61518,0.959554 v -1.015999 h 2.38478 v -7.775216 q 0,-0.352778 -0.35278,-0.352778 h -1.778 v -1.015999 h 2.06022 q 0.60678,0 0.93134,0.324555 0.32455,0.324556 0.32455,0.931333 v 7.888105 h 2.38478 v 1.015999 z m 11.10631,0.169334 q -0.98778,0 -1.74978,-0.451556 -0.74789,-0.465666 -1.18533,-1.28411 -0.43745,-0.832555 -0.43745,-1.933221 0,-1.100665 0.42334,-1.919109 0.43744,-0.832555 1.19944,-1.28411 0.762,-0.465667 1.778,-0.465667 1.016,0 1.73566,0.465667 0.71967,0.451555 1.10067,1.199443 0.381,0.747889 0.381,1.608666 0,0.155222 -0.0141,0.310444 0,0.155222 0,0.352777 h -5.43278 q 0.0423,0.776111 0.35278,1.298222 0.32456,0.507999 0.80433,0.761999 0.49389,0.254 1.04423,0.254 0.77611,0 1.21355,-0.324555 0.43744,-0.324556 0.66322,-0.903111 h 1.17122 q -0.23989,0.973666 -1.00188,1.650999 -0.762,0.663222 -2.04611,0.663222 z m 0,-6.27944 q -0.81845,0 -1.43934,0.493888 -0.60677,0.493889 -0.74788,1.382888 h 4.26155 q -0.0564,-0.874888 -0.635,-1.368776 -0.56445,-0.508 -1.43933,-0.508 z m 7.19751,6.27944 q -0.83255,0 -1.38288,-0.296334 -0.55034,-0.296333 -0.81845,-0.77611 -0.26811,-0.493889 -0.26811,-1.072444 0,-1.072443 0.77611,-1.622776 0.79022,-0.564444 2.10256,-0.564444 h 1.91911 v -0.141111 q 0,-1.834443 -1.67922,-1.834443 -0.67734,0 -1.143,0.296333 -0.45156,0.296333 -0.57856,0.931332 h -1.21355 q 0.0705,-0.705555 0.46566,-1.213554 0.40922,-0.508 1.04422,-0.776111 0.635,-0.268111 1.42523,-0.268111 1.49577,0 2.1731,0.790222 0.69145,0.776111 0.69145,2.074332 v 4.303885 h -1.016 l -0.0988,-1.086554 h -0.0988 q -0.31044,0.507999 -0.83255,0.888999 -0.508,0.366889 -1.46756,0.366889 z m 0.21167,-1.044222 q 0.67733,0 1.143,-0.324555 0.47978,-0.324555 0.71967,-0.860777 0.254,-0.536222 0.254,-1.171222 h -1.82034 q -0.95955,0 -1.35466,0.324556 -0.381,0.324555 -0.381,0.860777 0,0.550333 0.36689,0.860777 0.36689,0.310444 1.07244,0.310444 z m 8.3123,1.044222 q -1.34056,0 -2.17311,-0.620889 -0.81845,-0.634999 -0.91722,-1.735665 h 1.22766 q 0.0847,0.578555 0.56445,0.945444 0.49388,0.366888 1.32644,0.366888 0.79022,0 1.17122,-0.338666 0.39511,-0.338667 0.39511,-0.776111 0,-0.592666 -0.46567,-0.804333 -0.46566,-0.225777 -1.39699,-0.338666 -1.11478,-0.127 -1.84856,-0.606777 -0.73378,-0.479778 -0.73378,-1.439332 0,-0.860778 0.71967,-1.425222 0.71967,-0.564444 1.96144,-0.564444 1.22767,0 1.93322,0.564444 0.70556,0.550333 0.80434,1.580444 h -1.17122 q -0.0423,-0.508 -0.49389,-0.804333 -0.43745,-0.310444 -1.10067,-0.310444 -0.69144,0 -1.07244,0.268111 -0.381,0.253999 -0.381,0.677332 0,0.423333 0.42333,0.705555 0.43745,0.268111 1.36878,0.352778 0.73378,0.08467 1.34055,0.282222 0.60678,0.197555 0.95956,0.620888 0.36689,0.423333 0.36689,1.185333 0.0141,0.634999 -0.35278,1.142999 -0.35278,0.493888 -0.98778,0.790222 -0.635,0.282222 -1.46755,0.282222 z m 7.86075,0 q -0.98778,0 -1.74978,-0.451556 -0.74789,-0.465666 -1.18533,-1.28411 -0.43745,-0.832555 -0.43745,-1.933221 0,-1.100665 0.42334,-1.919109 0.43744,-0.832555 1.19944,-1.28411 0.762,-0.465667 1.778,-0.465667 1.016,0 1.73566,0.465667 0.71967,0.451555 1.10067,1.199443 0.381,0.747889 0.381,1.608666 0,0.155222 -0.0141,0.310444 0,0.155222 0,0.352777 h -5.43278 q 0.0423,0.776111 0.35278,1.298222 0.32456,0.507999 0.80433,0.761999 0.49389,0.254 1.04423,0.254 0.77611,0 1.21355,-0.324555 0.43744,-0.324556 0.66322,-0.903111 h 1.17122 q -0.23989,0.973666 -1.00189,1.650999 -0.76199,0.663222 -2.0461,0.663222 z m 0,-6.27944 q -0.81845,0 -1.43934,0.493888 -0.60677,0.493889 -0.74789,1.382888 h 4.26156 q -0.0564,-0.874888 -0.635,-1.368776 -0.56445,-0.508 -1.43933,-0.508 z"
             id="path13" /></g></g></g></g></svg>
